v 0.13525 0.07965 0.00320 
v 0.13721 0.07965 0.02505 
v 0.13623 0.06067 0.01416 
v 0.16101 0.06989 0.00071 
v 0.12085 0.09662 0.00428 
v 0.07410 0.06989 0.00844 
v 0.16101 0.06989 0.00071 
v 0.07410 0.06989 0.00844 
v 0.12085 0.04315 0.00428 
v 0.16101 0.06989 0.00071 
v 0.07410 0.06989 0.00844 
v 0.12085 0.09662 0.00428 
v 0.16101 0.06989 0.00071 
v 0.12085 0.04315 0.00428 
v 0.07410 0.06989 0.00844 
v 0.13623 0.06067 0.01416 
v -0.54736 0.08081 0.06384 
v 0.13525 0.07965 0.00320 
v -0.54639 0.06076 0.07538 
v 0.13721 0.07965 0.02505 
v -0.54541 0.08081 0.08698 
v 0.13525 0.07965 0.00320 
v -0.54736 0.08081 0.06384 
v 0.16211 0.10779 0.01186 
v 0.29541 0.06989 0.00000 
v 0.39526 0.12622 -0.00887 
v 0.10370 0.06989 0.01706 
v 0.16211 0.03198 0.01186 
v 0.39526 0.01351 -0.00887 
v 0.29541 0.06989 0.00000 
v 0.10370 0.06989 0.01706 
v 0.16211 0.10779 0.01186 
v 0.39526 0.12622 -0.00887 
v 0.29541 0.06989 0.00000 
v 0.10370 0.06989 0.01706 
v 0.16211 0.03198 0.01186 
v 0.29541 0.06989 0.00000 
v 0.39526 0.01351 -0.00887 
v 0.10370 0.06989 0.01706 
v -0.60840 0.04224 0.08093 
v -0.61084 0.07001 0.05328 
v -0.54639 0.06076 0.07538 
v -0.79736 0.07001 0.09772 
v -0.60840 0.09772 0.08093 
v -0.54736 0.08081 0.06384 
v -0.54541 0.08081 0.08698 
v -0.60596 0.07001 0.10858 
v -0.54639 0.06076 0.07538 
v -0.60840 0.04224 0.08093 
v -0.79736 0.07001 0.09772 
vt 0.21692 0.82666 
vt 0.36060 0.82666 
vt 0.28882 0.95102 
vt 0.05527 0.87842 
vt 0.17371 0.69971 
vt 0.05527 0.49170 
vt 0.05527 0.87842 
vt 0.05527 0.49170 
vt 0.17371 0.69971 
vt 0.05527 0.87842 
vt 0.05527 0.49170 
vt 0.17371 0.69971 
vt 0.05527 0.87842 
vt 0.17371 0.69971 
vt 0.05527 0.49170 
vt 0.93213 0.97665 
vt 0.98389 0.01563 
vt 0.98389 0.97665 
vt 0.93213 0.01563 
vt 0.88037 0.97665 
vt 0.88037 0.01563 
vt 0.82861 0.97665 
vt 0.82861 0.01563 
vt 0.26465 0.20215 
vt 0.38916 0.77881 
vt 0.76953 0.99976 
vt 0.02803 0.14014 
vt 0.26465 0.20215 
vt 0.76953 0.99976 
vt 0.38916 0.77881 
vt 0.02803 0.14014 
vt 0.26465 0.20215 
vt 0.76953 0.99976 
vt 0.38916 0.77881 
vt 0.02803 0.14014 
vt 0.26465 0.20215 
vt 0.38916 0.77881 
vt 0.76953 0.99976 
vt 0.02803 0.14014 
vt 0.40820 0.28223 
vt 0.48560 0.25928 
vt 0.45459 0.12305 
vt 0.65625 0.62402 
vt 0.55957 0.23975 
vt 0.50537 0.11670 
vt 0.55469 0.10498 
vt 0.63477 0.22314 
vt 0.60449 0.08740 
vt 0.71436 0.20850 
vt 0.65625 0.62402 
vn -0.05255 0.50391 -0.86230 
vn 0.10046 0.50342 0.85791 
vn 0.03769 -0.99951 -0.00485 
vn 0.08862 0.00000 0.99609 
vn 0.08862 0.00000 0.99609 
vn 0.08862 0.00000 0.99609 
vn 0.08862 0.00000 0.99609 
vn 0.08862 0.00000 0.99609 
vn 0.08862 0.00000 0.99609 
vn -0.08862 0.00000 -0.99609 
vn -0.08862 0.00000 -0.99609 
vn -0.08862 0.00000 -0.99609 
vn -0.08862 0.00000 -0.99609 
vn -0.08862 0.00000 -0.99609 
vn -0.08862 0.00000 -0.99609 
vn 0.03769 -0.99951 -0.00485 
vn -0.01411 0.50684 -0.86182 
vn -0.05255 0.50391 -0.86230 
vn 0.09192 -0.99561 -0.00943 
vn 0.10046 0.50342 0.85791 
vn 0.13879 0.50244 0.85352 
vn -0.05255 0.50391 -0.86230 
vn -0.01411 0.50684 -0.86182 
vn 0.08862 0.00000 0.99609 
vn 0.08862 0.00000 0.99609 
vn 0.08862 0.00000 0.99609 
vn 0.08862 0.00000 0.99609 
vn 0.08862 0.00000 0.99609 
vn 0.08862 0.00000 0.99609 
vn 0.08862 0.00000 0.99609 
vn 0.08862 0.00000 0.99609 
vn -0.08862 0.00000 -0.99609 
vn -0.08862 0.00000 -0.99609 
vn -0.08862 0.00000 -0.99609 
vn -0.08862 0.00000 -0.99609 
vn -0.08862 0.00000 -0.99609 
vn -0.08862 0.00000 -0.99609 
vn -0.08862 0.00000 -0.99609 
vn -0.08862 0.00000 -0.99609 
vn -0.04208 -0.99902 0.00381 
vn -0.15332 -0.00434 -0.98828 
vn 0.09192 -0.99561 -0.00943 
vn -0.23193 0.00000 -0.97266 
vn -0.08557 0.99609 0.00761 
vn -0.01411 0.50684 -0.86182 
vn 0.13879 0.50244 0.85352 
vn 0.02370 -0.00438 0.99951 
vn 0.09192 -0.99561 -0.00943 
vn -0.04208 -0.99902 0.00381 
vn -0.05661 0.00000 0.99854 
f 1/1/1 2/2/2 3/3/3 
f 4/4/4 5/5/5 6/6/6 
f 7/7/7 8/8/8 9/9/9 
f 10/10/10 11/11/11 12/12/12 
f 13/13/13 14/14/14 15/15/15 
f 16/16/16 17/17/17 18/18/18 
f 19/19/19 17/17/17 16/16/16 
f 20/20/20 19/19/19 16/16/16 
f 21/21/21 19/19/19 20/20/20 
f 22/22/22 21/21/21 20/20/20 
f 23/23/23 21/21/21 22/22/22 
f 24/24/24 25/25/25 26/26/26 
f 25/25/25 24/24/24 27/27/27 
f 28/28/28 29/29/29 30/30/30 
f 30/30/30 31/31/31 28/28/28 
f 32/32/32 33/33/33 34/34/34 
f 34/34/34 35/35/35 32/32/32 
f 36/36/36 37/37/37 38/38/38 
f 37/37/37 36/36/36 39/39/39 
f 40/40/40 41/41/41 42/42/42 
f 43/43/43 41/41/41 40/40/40 
f 43/43/43 44/44/44 41/41/41 
f 44/44/44 45/45/45 41/41/41 
f 41/41/41 45/45/45 42/42/42 
f 44/44/44 46/46/46 45/45/45 
f 46/46/46 44/44/44 47/47/47 
f 47/47/47 48/48/48 46/46/46 
f 48/48/48 47/47/47 49/49/49 
f 50/50/50 49/49/49 47/47/47 
f 50/50/50 47/47/47 44/44/44 
